PathFileType	4	(X/Y/Z)	/Users/itak/Documents/Research/Walk-IL/dataset/trc/00085_00006.trc
DataRate	CameraRate	NumFrames	NumMarkers	Units	OrigDataRate	OrigDataStartFrame	OrigNumFrames
100.000000	100.000000	4	53	mm	100.000000	327	524
Frame#	Time	RPSI			LPSI			L3			STRN			T10			C7			CLAV			RBAK			LBAK			LSHO			LUPA			LAEL			LAOL			LWTS			LWPS			LFRA			LIFD			LHPS			LHTS			RSHO			RUPA			RAEL			RAOL			RWTS			RWPS			RFRA			RIFD			RHTS			RHPS			RBHD			LFHD			RFHD			LBHD			LHIP			RHIP			RASI			LASI			LKNE			LTHI			LANK			LTIP			LTOE			LMT1			LMT5			LHEE			RKNE			RTHI			RANK			RTIP			RTOE			RMT1			RMT5			RHEE			
		X1	Y1	Z1	X2	Y2	Z2	X3	Y3	Z3	X4	Y4	Z4	X5	Y5	Z5	X6	Y6	Z6	X7	Y7	Z7	X8	Y8	Z8	X9	Y9	Z9	X10	Y10	Z10	X11	Y11	Z11	X12	Y12	Z12	X13	Y13	Z13	X14	Y14	Z14	X15	Y15	Z15	X16	Y16	Z16	X17	Y17	Z17	X18	Y18	Z18	X19	Y19	Z19	X20	Y20	Z20	X21	Y21	Z21	X22	Y22	Z22	X23	Y23	Z23	X24	Y24	Z24	X25	Y25	Z25	X26	Y26	Z26	X27	Y27	Z27	X28	Y28	Z28	X29	Y29	Z29	X30	Y30	Z30	X31	Y31	Z31	X32	Y32	Z32	X33	Y33	Z33	X34	Y34	Z34	X35	Y35	Z35	X36	Y36	Z36	X37	Y37	Z37	X38	Y38	Z38	X39	Y39	Z39	X40	Y40	Z40	X41	Y41	Z41	X42	Y42	Z42	X43	Y43	Z43	X44	Y44	Z44	X45	Y45	Z45	X46	Y46	Z46	X47	Y47	Z47	X48	Y48	Z48	X49	Y49	Z49	X50	Y50	Z50	X51	Y51	Z51	X52	Y52	Z52	X53	Y53	Z53	

328	3.27	133.7136993408203	1010.457885742188	182.7113800048828	13.79843139648438	994.6646728515625	54.0608024597168	75.96920776367188	1058.78564453125	114.9661331176758	262.2068786621094	1258.419067382812	-53.40558624267578	63.0916862487793	1192.028686523438	125.9508361816406	104.3094940185547	1458.920166015625	85.68650817871094	237.6195373535156	1373.151000976562	-34.77539825439453	108.5655364990234	1320.377075195312	183.9813842773438	19.3504581451416	1422.597900390625	26.9904613494873	45.80843734741211	1426.964111328125	-96.43476867675781	-26.69474220275879	1303.299560546875	-135.4445037841797	-48.72455596923828	1089.612548828125	-147.1424102783203	-26.42498779296875	1079.221435546875	-42.41111373901367	30.12229537963867	838.5196533203125	-159.3893890380859	-54.99105834960938	838.370849609375	-155.2967987060547	-53.61092376708984	979.9864501953125	-160.9681549072266	22.74518966674805	651.4334106445312	-134.3794860839844	-42.37036514282227	753.9151000976562	-168.4682159423828	29.49482917785645	751.3331909179688	-170.5275268554688	268.6572265625	1423.934936523438	172.2321319580078	303.3529052734375	1353.883911132812	224.4554595947266	319.5525512695312	1091.2451171875	266.769287109375	271.1782531738281	1067.9814453125	182.1816558837891	425.0830383300781	860.7822265625	120.7889938354492	411.3906555175781	834.8428955078125	202.7354583740234	342.9046020507812	1010.30810546875	259.7109985351562	436.0687866210938	677.6743774414062	83.30658721923828	454.5513305664062	766.0892944335938	92.97039031982422	450.4624633789062	753.7451782226562	169.2086944580078	90.83359527587891	1631.138793945312	51.1141471862793	289.5397033691406	1679.8017578125	-15.6687183380127	187.5203399658203	1682.781005859375	-89.41895294189453	207.391357421875	1621.598510742188	123.1007614135742	41.81855392456055	933.6609497070312	-83.47246551513672	232.3577270507812	937.9237060546875	203.4401550292969	315.905029296875	950.4636840820312	108.4056549072266	161.6415100097656	946.6375122070312	-108.504768371582	270.0659484863281	508.9830322265625	-122.6235046386719	176.5009765625	626.8026733398438	-127.8866119384766	248.1305084228516	44.41096115112305	-76.29177856445312	256.3706359863281	256.50244140625	-110.7490921020508	426.9164733886719	40.84155654907227	-182.1693115234375	412.0633239746094	38.23305892944336	-112.8771820068359	313.4085083007812	41.91400909423828	-164.2841186523438	249.6430053710938	41.94634628295898	15.6001443862915	260.3185729980469	489.6655578613281	180.9406890869141	289.1727905273438	759.6796875	169.2330627441406	-47.70724868774414	175.2402038574219	414.728759765625	197.4358825683594	394.5164184570312	242.2832641601562	38.79367446899414	35.5199089050293	299.4008483886719	-9.830023765563965	75.43441009521484	285.9881591796875	17.32386589050293	75.05320739746094	381.0744934082031	-97.37521362304688	216.4455718994141	380.21826171875	
329	3.28	140.6557922363281	1010.111633300781	176.1591339111328	20.15489959716797	994.9003295898438	48.10684967041016	82.36834716796875	1059.478637695312	108.5699768066406	268.0455322265625	1259.095825195312	-60.49213409423828	69.82709503173828	1192.6396484375	119.4344482421875	110.7186279296875	1459.586791992188	79.35604095458984	243.5707550048828	1373.7958984375	-41.68562316894531	115.3806076049805	1320.96826171875	177.5267791748047	25.52627182006836	1423.198974609375	20.88391876220703	51.51302719116211	1427.569458007812	-102.5072937011719	-20.87345886230469	1304.000854492188	-141.7725677490234	-42.50730895996094	1090.113525390625	-154.2950134277344	-20.19679069519043	1079.445434570312	-49.68992233276367	40.19244384765625	840.3778076171875	-168.0423889160156	-44.95038986206055	838.7575073242188	-163.7377166748047	-45.94719314575195	980.3938598632812	-168.7291564941406	36.13364791870117	653.146728515625	-144.3526611328125	-30.81943130493164	754.6531372070312	-177.5108642578125	41.08155059814453	753.3472900390625	-179.7609100341797	275.63232421875	1424.490966796875	165.1145935058594	310.4896240234375	1354.32861328125	217.0596923828125	325.9231262207031	1091.753540039062	259.2539672851562	276.7817993164062	1068.599243164062	175.0723266601562	428.1950073242188	859.0949096679688	114.3740692138672	415.0067138671875	834.3663330078125	196.7800598144531	348.4873962402344	1010.833068847656	252.4735260009766	436.091552734375	675.2713012695312	79.13230895996094	455.9453125	763.5051879882812	87.43232727050781	452.5668334960938	752.2305908203125	163.8430938720703	96.99398040771484	1631.6650390625	44.9463996887207	295.2074584960938	1680.5869140625	-23.10256767272949	192.7280426025391	1683.346069335938	-96.24413299560547	214.0118560791016	1622.366821289062	116.2222137451172	47.24221420288086	934.0980224609375	-89.63383483886719	239.5921020507812	937.2578125	195.6243896484375	322.761962890625	951.0955810546875	100.3027114868164	166.9225769042969	947.2516479492188	-115.4982604980469	274.6619262695312	508.3417053222656	-126.5973587036133	181.2197875976562	626.546875	-132.3983154296875	248.3963470458984	44.61709213256836	-76.23160552978516	258.7440490722656	256.0945129394531	-112.2777099609375	427.2107238769531	40.54795455932617	-182.0046234130859	412.2307434082031	37.61572647094727	-112.7249298095703	313.7347717285156	42.10944366455078	-164.1795196533203	249.9589996337891	41.98700332641602	15.67623329162598	276.52978515625	489.0997314453125	168.0966033935547	299.4232482910156	759.9910278320312	159.4989929199219	-34.4408073425293	184.7534332275391	409.0106811523438	213.4852142333984	395.0196228027344	230.1460571289062	48.70735168457031	37.43937301635742	296.4293212890625	0.2391051054000854	80.33256530761719	282.201904296875	28.30556297302246	82.37754821777344	377.2054443359375	-83.78354644775391	225.8810577392578	374.2880859375	
330	3.29	147.5729827880859	1009.684509277344	169.6882171630859	26.42791175842285	995.1722412109375	42.31669998168945	88.6290283203125	1060.1240234375	102.2734146118164	273.7808227539062	1259.736572265625	-67.39167022705078	76.40627288818359	1193.259033203125	112.9874496459961	117.0195388793945	1460.265258789062	73.16033935546875	249.4228973388672	1374.408325195312	-48.42604064941406	122.028205871582	1321.55029296875	171.1875915527344	31.57548713684082	1423.796508789062	14.88509941101074	57.12298965454102	1428.107421875	-108.4828872680664	-15.14811992645264	1304.628173828125	-148.0128936767578	-36.44309616088867	1090.55078125	-161.5233001708984	-14.22535037994385	1079.563842773438	-57.01420211791992	50.33127593994141	842.3465576171875	-176.782958984375	-34.82124328613281	839.0881958007812	-172.276123046875	-38.35257720947266	980.7396850585938	-176.5733184814453	50.06278228759766	655.0648803710938	-154.6981201171875	-19.01134300231934	755.42724609375	-186.7454223632812	52.92220306396484	755.5645751953125	-189.2097015380859	282.4465942382812	1424.915405273438	158.1827850341797	317.4086608886719	1354.615966796875	209.8673400878906	332.1595764160156	1092.085327148438	251.9285125732422	282.2353210449219	1069.005737304688	168.1918640136719	431.2125244140625	857.3077392578125	108.1597518920898	418.6532592773438	833.811279296875	191.0381164550781	354.0048828125	1011.215515136719	245.4333953857422	436.1235046386719	672.8062744140625	75.31124877929688	457.2683410644531	760.849609375	82.13648986816406	454.7555236816406	750.6925659179688	158.7082214355469	103.1361236572266	1632.243530273438	38.84722137451172	300.8523864746094	1681.328857421875	-30.48762893676758	197.9143829345703	1683.895874023438	-103.0071640014648	220.5924377441406	1623.145629882812	109.4051895141602	52.44711685180664	934.4954833984375	-95.58910369873047	246.7657928466797	936.6030883789062	187.8571014404297	329.548828125	951.756103515625	92.22199249267578	172.032958984375	947.8474731445312	-122.3986511230469	278.6977233886719	507.6345825195312	-130.3212738037109	185.4275817871094	626.2000732421875	-136.5823669433594	248.623779296875	44.79717636108398	-76.14246368408203	260.7564697265625	255.6745758056641	-113.6259841918945	427.4336242675781	40.49966812133789	-181.8071899414062	412.3353271484375	37.13586807250977	-112.5486831665039	313.9942932128906	42.34650802612305	-164.0431365966797	250.2528533935547	41.98554611206055	15.79512691497803	292.556640625	488.8846130371094	155.0300140380859	309.6237182617188	760.5192260742188	149.7418670654297	-20.72797966003418	193.5270080566406	402.2848205566406	229.4323577880859	395.8333740234375	217.6558837890625	60.5789794921875	40.24854278564453	292.3258972167969	11.97022247314453	85.36905670166016	277.4139404296875	40.93624877929688	89.97976684570312	372.2479248046875	-69.95487976074219	234.2949829101562	367.3797607421875	
331	3.3	154.5240783691406	1009.2666015625	163.2642517089844	32.63860702514648	995.532470703125	36.7046012878418	94.79910278320312	1060.739501953125	96.07928466796875	279.41455078125	1260.390258789062	-74.13423919677734	82.84117889404297	1193.897338867188	106.645881652832	123.2151718139648	1460.960327148438	67.10948181152344	255.1653747558594	1375.036010742188	-55.00564193725586	128.5292816162109	1322.134521484375	164.9690399169922	37.49272918701172	1424.409057617188	9.024345397949219	62.61990737915039	1428.627807617188	-114.3406066894531	-9.529665946960449	1305.22509765625	-154.1364288330078	-30.49277687072754	1090.97900390625	-168.7950744628906	-8.46970272064209	1079.620361328125	-64.35221099853516	60.5015754699707	844.4591674804688	-185.5672149658203	-24.62495994567871	839.4364624023438	-180.9004974365234	-30.8018741607666	981.0924682617188	-184.4711456298828	64.41987609863281	657.25390625	-165.3614349365234	-6.996531963348389	756.3084106445312	-196.1467132568359	64.94810485839844	758.03662109375	-198.8297424316406	289.0994567871094	1425.248291015625	151.4330596923828	324.1175231933594	1354.794311523438	202.8780517578125	338.2116088867188	1092.296264648438	244.7950744628906	287.5249938964844	1069.258178710938	161.5084991455078	434.1369934082031	855.49267578125	102.1646041870117	422.3088073730469	833.2164306640625	185.5155029296875	359.4135437011719	1011.495422363281	238.5853118896484	436.2960205078125	670.3701782226562	71.80951690673828	458.5881958007812	758.2221069335938	77.08900451660156	457.0547485351562	749.2008056640625	153.8062744140625	109.2477264404297	1632.907104492188	32.81444549560547	306.475830078125	1682.039672851562	-37.82094573974609	203.0858917236328	1684.446044921875	-109.7083892822266	227.1180114746094	1623.962524414062	102.6528778076172	57.42802047729492	934.8853149414062	-101.3303070068359	253.9607696533203	936.0860595703125	180.1356964111328	336.2730712890625	952.4906616210938	84.10819244384766	176.9458770751953	948.4649047851562	-129.2243499755859	282.2117309570312	506.8941650390625	-133.8243408203125	189.1738128662109	625.8043823242188	-140.4718170166016	248.8284912109375	44.95396423339844	-76.05261993408203	262.4592895507812	255.2548675537109	-114.8563232421875	427.6209716796875	40.57788848876953	-181.5956268310547	412.4169311523438	36.76268005371094	-112.3665542602539	314.218505859375	42.57996368408203	-163.8964233398438	250.5090637207031	41.96566390991211	15.92364883422852	308.3417663574219	489.0687255859375	141.7861480712891	319.7785034179688	761.3140869140625	139.9306945800781	-6.53466796875	201.335205078125	394.5539245605469	245.2539215087891	396.9860229492188	204.8934783935547	74.33962249755859	43.82070541381836	286.9522705078125	25.30752563476562	90.30152130126953	271.5414123535156	55.19479370117188	97.54263305664062	366.0977172851562	-55.85055923461914	241.4937744140625	359.5138244628906	
